<svg width="329" height="90" viewBox="0 0 329 90" fill="none" xmlns="http://www.w3.org/2000/svg">
<path d="M82.184 74.316L83.1794 74.2189L83.1781 74.2071L82.184 74.316ZM84.232 83.148L83.3129 83.5419L83.3215 83.5621L83.331 83.5818L84.232 83.148ZM88.328 87.5V88.5L88.6737 86.5617L88.328 87.5ZM59.528 87.5L59.299 86.5266L59.528 88.5V87.5ZM62.856 84.684L61.9616 84.2368L62.856 84.684ZM63.624 73.42L62.6311 73.5391L62.6317 73.544L63.624 73.42ZM62.984 67.532L63.9795 67.4372L63.8933 66.532H62.984V67.532ZM31.88 67.532V66.532H31.3024L31.0138 67.0323L31.88 67.532ZM28.04 74.188L28.902 74.695L28.9062 74.6877L28.04 74.188ZM27.016 87.5V88.5L27.2791 86.5352L27.016 87.5ZM0.52 87.5L0.310471 86.5222L0.52 88.5V87.5ZM5.64 83.532L6.37279 84.2124L5.64 83.532ZM13.064 73.42L12.2225 72.8796L12.2169 72.8885L13.064 73.42ZM59.016 1.868V0.867996H58.4698L58.1746 1.32762L59.016 1.868ZM74.248 1.868L75.2421 1.75911L75.1444 0.867996H74.248V1.868ZM61.704 56.396V57.396H62.8046L62.6994 56.3004L61.704 56.396ZM58.632 24.396L59.6274 24.3004L59.3414 21.3211L57.7791 23.874L58.632 24.396ZM39.048 56.396L38.1951 55.874L37.2636 57.396H39.048V56.396ZM81.1887 74.4131C81.5368 77.9805 82.237 81.0315 83.3129 83.5419L85.1511 82.7541C84.179 80.4858 83.5139 77.6488 83.1793 74.2189L81.1887 74.4131ZM83.331 83.5818C84.4995 86.0087 86.0222 87.7162 87.9823 88.4383L88.6737 86.5617C87.3911 86.0891 86.1832 84.8953 85.133 82.7142L83.331 83.5818ZM88.328 86.5H59.528V88.5H88.328V86.5ZM59.757 88.4734C61.5424 88.0533 62.8723 86.8875 63.7504 85.1312L61.9616 84.2368C61.3037 85.5525 60.4149 86.264 59.299 86.5266L59.757 88.4734ZM63.7504 85.1312C64.6153 83.4014 65.008 81.1366 65.008 78.412H63.008C63.008 80.9781 62.6327 82.8946 61.9616 84.2368L63.7504 85.1312ZM65.008 78.412C65.008 77.0733 64.8747 75.3635 64.6163 73.296L62.6317 73.544C62.8853 75.5725 63.008 77.1907 63.008 78.412H65.008ZM64.6169 73.3008C64.3617 71.1741 64.1493 69.2197 63.9795 67.4372L61.9885 67.6268C62.1601 69.4283 62.3743 71.3992 62.6311 73.5391L64.6169 73.3008ZM62.984 66.532H31.88V68.532H62.984V66.532ZM31.0138 67.0323L27.1738 73.6883L28.9062 74.6877L32.7462 68.0317L31.0138 67.0323ZM27.1781 73.681C25.8839 75.8811 24.8981 77.8044 24.2333 79.4443C23.5752 81.0675 23.2 82.4883 23.2 83.66H25.2C25.2 82.869 25.4648 81.7298 26.0867 80.1957C26.7019 78.6783 27.6361 76.8469 28.9019 74.695L27.1781 73.681ZM23.2 83.66C23.2 84.8349 23.4703 85.8919 24.0976 86.7474C24.7287 87.6079 25.6468 88.1631 26.7529 88.4648L27.2791 86.5352C26.5078 86.3249 26.018 85.9841 25.7104 85.5646C25.3991 85.1401 25.2 84.5331 25.2 83.66H23.2ZM27.016 86.5H0.52V88.5H27.016V86.5ZM0.729529 88.4778C1.54622 88.3028 2.41427 87.7995 3.30857 87.1064C4.22068 86.3995 5.2431 85.429 6.37279 84.2124L4.90721 82.8515C3.81824 84.0243 2.87799 84.9098 2.08343 85.5256C1.27107 86.1552 0.688442 86.4412 0.310471 86.5222L0.729529 88.4778ZM6.37279 84.2124C8.65119 81.7588 11.1637 78.33 13.9111 73.9515L12.2169 72.8885C9.50293 77.214 7.06614 80.5265 4.90721 82.8515L6.37279 84.2124ZM13.9054 73.9604L59.8574 2.40837L58.1746 1.32762L12.2226 72.8796L13.9054 73.9604ZM59.016 2.868H74.248V0.867996H59.016V2.868ZM73.2539 1.97689L81.1899 74.4249L83.1781 74.2071L75.2421 1.75911L73.2539 1.97689ZM62.6994 56.3004L59.6274 24.3004L57.6366 24.4916L60.7086 56.4916L62.6994 56.3004ZM57.7791 23.874L38.1951 55.874L39.9009 56.918L59.4849 24.918L57.7791 23.874ZM39.048 57.396H61.704V55.396H39.048V57.396ZM157.717 26.7L156.8 27.0999L158.055 29.9743L158.696 26.9044L157.717 26.7ZM149.141 16.076L148.573 16.8989L148.584 16.9066L148.595 16.914L149.141 16.076ZM129.557 15.052L128.914 14.2863L128.906 14.2928L128.898 14.2994L129.557 15.052ZM129.941 30.54L129.198 31.209L129.209 31.222L129.222 31.2346L129.941 30.54ZM141.589 39.756L141.025 40.5819L141.028 40.5837L141.589 39.756ZM147.733 81.996L147.089 81.2314L147.733 81.996ZM108.309 87.372L108.017 88.3285L108.027 88.3314L108.036 88.3341L108.309 87.372ZM96.533 81.996L95.5557 81.784L95.4175 82.4212L95.9448 82.8047L96.533 81.996ZM101.781 57.804L102.743 57.5325L100.804 57.592L101.781 57.804ZM110.869 72.396L110.277 73.2019L110.285 73.2075L110.869 72.396ZM134.165 74.06L134.828 74.809L134.836 74.802L134.843 74.7948L134.165 74.06ZM134.293 58.828L133.559 59.5074L134.293 58.828ZM122.901 49.74L123.468 48.9159L123.457 48.9091L122.901 49.74ZM116.757 7.884L116.095 7.13414L116.09 7.13905L116.757 7.884ZM151.317 1.99599L151.032 2.95438L151.041 2.95719L151.05 2.9598L151.317 1.99599ZM161.941 6.476L162.92 6.68045L163.064 5.99034L162.462 5.62271L161.941 6.476ZM158.634 26.3001C156.521 21.4586 153.546 17.751 149.687 15.238L148.595 16.914C152.075 19.1796 154.817 22.5547 156.8 27.0999L158.634 26.3001ZM149.709 15.2531C145.981 12.6791 142.074 11.364 138.005 11.364V13.364C141.616 13.364 145.133 14.5235 148.573 16.8989L149.709 15.2531ZM138.005 11.364C134.333 11.364 131.27 12.3074 128.914 14.2863L130.2 15.8177C132.111 14.2126 134.68 13.364 138.005 13.364V11.364ZM128.898 14.2994C126.586 16.3229 125.485 19.1855 125.485 22.732H127.485C127.485 19.6225 128.432 17.3651 130.216 15.8046L128.898 14.2994ZM125.485 22.732C125.485 25.6915 126.78 28.5222 129.198 31.209L130.684 29.871C128.494 27.4378 127.485 25.0632 127.485 22.732H125.485ZM129.222 31.2346C131.683 33.784 135.633 36.9018 141.025 40.5819L142.153 38.93C136.793 35.2716 132.978 32.2454 130.66 29.8454L129.222 31.2346ZM141.028 40.5837C150.956 47.3147 155.693 54.6428 155.693 62.54H157.693C157.693 53.7119 152.361 45.8506 142.15 38.9283L141.028 40.5837ZM155.693 62.54C155.693 70.1866 152.832 76.3902 147.089 81.2314L148.377 82.7606C154.58 77.5325 157.693 70.7654 157.693 62.54H155.693ZM147.089 81.2314C141.345 86.0722 133.491 88.548 123.413 88.548V90.548C133.815 90.548 142.174 87.9892 148.377 82.7606L147.089 81.2314ZM123.413 88.548C118.562 88.548 113.62 87.8373 108.582 86.4099L108.036 88.3341C113.238 89.808 118.365 90.548 123.413 90.548V88.548ZM108.601 86.4155C103.624 84.8971 99.8137 83.1455 97.1212 81.1873L95.9448 82.8047C98.8843 84.9425 102.925 86.7749 108.017 88.3285L108.601 86.4155ZM97.5103 82.208L102.758 58.016L100.804 57.592L95.5557 81.784L97.5103 82.208ZM100.819 58.0755C102.736 64.8747 105.864 69.96 110.277 73.2019L111.461 71.5901C107.511 68.688 104.58 64.0453 102.743 57.5325L100.819 58.0755ZM110.285 73.2075C114.717 76.3985 119.613 78.004 124.949 78.004V76.004C120.045 76.004 115.555 74.5375 111.453 71.5845L110.285 73.2075ZM124.949 78.004C129.038 78.004 132.374 76.9799 134.828 74.809L133.502 73.311C131.519 75.0655 128.711 76.004 124.949 76.004V78.004ZM134.843 74.7948C137.283 72.5424 138.493 69.6226 138.493 66.124H136.493C136.493 69.1107 135.484 71.4816 133.487 73.3252L134.843 74.7948ZM138.493 66.124C138.493 63.2579 137.291 60.5934 135.027 58.1486L133.559 59.5074C135.562 61.6706 136.493 63.8701 136.493 66.124H138.493ZM135.027 58.1486C132.813 55.7583 128.938 52.677 123.468 48.916L122.334 50.564C127.787 54.3124 131.506 57.2897 133.559 59.5074L135.027 58.1486ZM123.457 48.9091C113.812 42.4511 109.181 35.0858 109.181 26.828H107.181C107.181 35.9782 112.363 43.8875 122.345 50.5709L123.457 48.9091ZM109.181 26.828C109.181 19.6101 111.913 13.564 117.424 8.62894L116.09 7.13905C110.166 12.444 107.181 19.0272 107.181 26.828H109.181ZM117.419 8.63383C123.005 3.70474 130.264 1.20399 139.285 1.20399V-0.796005C129.874 -0.796005 122.114 1.82325 116.095 7.13416L117.419 8.63383ZM139.285 1.20399C143.195 1.20399 147.109 1.78611 151.032 2.95438L151.602 1.03761C147.503 -0.183449 143.396 -0.796005 139.285 -0.796005V1.20399ZM151.05 2.9598C154.985 4.0481 158.438 5.50733 161.42 7.32928L162.462 5.62271C159.3 3.69 155.67 2.16255 151.584 1.03218L151.05 2.9598ZM160.962 6.27155L156.738 26.4955L158.696 26.9044L162.92 6.68045L160.962 6.27155ZM237.794 77.772L238.76 78.0297L238.767 78.0054L238.772 77.9809L237.794 77.772ZM241.506 87.5V88.5L241.796 86.543L241.506 87.5ZM211.17 87.5L211.029 86.5101L211.17 88.5V87.5ZM215.906 84.684L215.161 84.0172L215.151 84.0284L215.141 84.0399L215.906 84.684ZM218.978 78.284L219.954 78.5043L219.956 78.4918L218.978 78.284ZM225.122 49.356L226.1 49.5638L226.357 48.356H225.122V49.356ZM192.61 49.356V48.356H191.8L191.632 49.1489L192.61 49.356ZM186.594 77.772L187.572 77.9815L187.572 77.9791L186.594 77.772ZM190.434 87.5V88.5L190.724 86.543L190.434 87.5ZM160.226 87.5L160.078 86.5111L160.226 88.5V87.5ZM164.834 84.684L164.089 84.0172L164.079 84.0284L164.069 84.0399L164.834 84.684ZM167.906 78.284L168.882 78.5043L168.884 78.4929L167.906 78.284ZM181.986 12.364L182.964 12.5729L182.971 12.5394L182.976 12.5054L181.986 12.364ZM178.146 2.252V1.252L177.83 3.20068L178.146 2.252ZM208.866 2.252L209.118 3.21982L208.866 1.252V2.252ZM200.674 11.852L199.699 11.6317L199.697 11.6386L200.674 11.852ZM194.914 38.22L193.937 38.0066L193.672 39.22H194.914V38.22ZM227.554 38.22V39.22H228.364L228.532 38.4282L227.554 38.22ZM233.058 12.364L232.085 12.1324L232.082 12.1441L232.08 12.1558L233.058 12.364ZM233.57 8.65199H232.57V8.71425L232.578 8.77603L233.57 8.65199ZM229.346 2.252V1.252L229.03 3.20068L229.346 2.252ZM259.938 2.252L260.194 3.21856L259.938 1.252V2.252ZM251.874 11.852L250.898 11.6317L250.896 11.6431L251.874 11.852ZM236.828 77.5143C236.47 78.8552 236.282 80.0959 236.282 81.228H238.282C238.282 80.3121 238.435 79.2488 238.76 78.0297L236.828 77.5143ZM236.282 81.228C236.282 83.0283 236.663 84.5948 237.509 85.8506C238.362 87.1179 239.626 87.9753 241.216 88.457L241.796 86.543C240.57 86.1714 239.722 85.5568 239.167 84.7334C238.605 83.8985 238.282 82.7557 238.282 81.228H236.282ZM241.506 86.5H211.17V88.5H241.506V86.5ZM211.311 88.4899C213.387 88.1934 215.176 87.1034 216.671 85.3281L215.141 84.0399C213.905 85.5073 212.537 86.2946 211.029 86.5101L211.311 88.4899ZM216.651 85.3508C218.24 83.575 219.328 81.2753 219.953 78.5043L218.003 78.0637C217.434 80.5834 216.473 82.5503 215.161 84.0172L216.651 85.3508ZM219.956 78.4918L226.1 49.5638L224.144 49.1482L218 78.0762L219.956 78.4918ZM225.122 48.356H192.61V50.356H225.122V48.356ZM191.632 49.1489L185.616 77.5649L187.572 77.9791L193.588 49.5631L191.632 49.1489ZM185.616 77.5625C185.348 78.8132 185.21 79.9936 185.21 81.1H187.21C187.21 80.1584 187.328 79.1201 187.572 77.9815L185.616 77.5625ZM185.21 81.1C185.21 82.9382 185.589 84.5343 186.431 85.8108C187.283 87.1013 188.548 87.9735 190.144 88.457L190.724 86.543C189.504 86.1732 188.657 85.5521 188.101 84.7092C187.535 83.8524 187.21 82.6751 187.21 81.1H185.21ZM190.434 86.5H160.226V88.5H190.434V86.5ZM160.374 88.4889C162.373 88.1891 164.114 87.0913 165.599 85.3281L164.069 84.0399C162.823 85.5194 161.492 86.2989 160.078 86.5111L160.374 88.4889ZM165.579 85.3508C167.168 83.575 168.256 81.2753 168.881 78.5043L166.931 78.0637C166.362 80.5834 165.401 82.5503 164.089 84.0172L165.579 85.3508ZM168.884 78.4929L182.964 12.5729L181.008 12.1551L166.928 78.0751L168.884 78.4929ZM182.976 12.5054C183.231 10.7187 183.37 9.41521 183.37 8.65199H181.37C181.37 9.25411 181.253 10.4253 180.996 12.2226L182.976 12.5054ZM183.37 8.65199C183.37 6.85053 182.989 5.27801 182.149 4.00515C181.302 2.72234 180.047 1.83154 178.462 1.30331L177.83 3.20068C179.061 3.61113 179.918 4.25632 180.479 5.10684C181.047 5.96732 181.37 7.12546 181.37 8.65199H183.37ZM178.146 3.252H208.866V1.252H178.146V3.252ZM208.614 1.28418C203.896 2.51105 200.953 6.07664 199.699 11.6317L201.649 12.0723C202.784 7.04601 205.303 4.21161 209.118 3.21982L208.614 1.28418ZM199.697 11.6386L193.937 38.0066L195.891 38.4334L201.651 12.0654L199.697 11.6386ZM194.914 39.22H227.554V37.22H194.914V39.22ZM228.532 38.4282L234.036 12.5722L232.08 12.1558L226.576 38.0118L228.532 38.4282ZM234.031 12.5956C234.453 10.8203 234.673 9.41482 234.562 8.52795L232.578 8.77603C232.638 9.2545 232.516 10.3237 232.085 12.1324L234.031 12.5956ZM234.57 8.65199C234.57 6.85053 234.189 5.27801 233.349 4.00515C232.502 2.72234 231.247 1.83154 229.662 1.30331L229.03 3.20068C230.261 3.61113 231.118 4.25632 231.679 5.10684C232.247 5.96732 232.57 7.12546 232.57 8.65199H234.57ZM229.346 3.252H259.938V1.252H229.346V3.252ZM259.682 1.28544C255.044 2.51593 252.151 6.08715 250.899 11.6317L252.849 12.0723C253.987 7.03551 256.47 4.20672 260.194 3.21856L259.682 1.28544ZM250.896 11.6431L236.816 77.5631L238.772 77.9809L252.852 12.0609L250.896 11.6431ZM313.044 87.5V88.5H313.856L314.023 87.7049L313.044 87.5ZM251.732 87.5L251.498 86.5278L251.732 88.5V87.5ZM260.692 76.876L261.667 77.0988L261.669 77.0872L260.692 76.876ZM274.132 14.668L273.155 14.4543L273.155 14.4568L274.132 14.668ZM275.028 9.036H276.028V9.02463L276.028 9.01328L275.028 9.036ZM270.42 2.252V1.252L270.171 3.22049L270.42 2.252ZM328.148 2.252L329.128 2.44923L329.369 1.252H328.148V2.252ZM323.796 23.884L322.797 23.9274L324.776 24.0812L323.796 23.884ZM319.956 15.948L319.46 16.8162L319.956 15.948ZM292.564 13.9V12.9H291.753L291.585 13.694L292.564 13.9ZM287.444 38.22L286.465 38.014L286.212 39.22H287.444V38.22ZM302.164 38.22L302.193 37.2204L302.179 37.22H302.164V38.22ZM313.812 33.868L314.791 34.0712L312.969 33.3296L313.812 33.868ZM309.588 54.22L308.6 54.3721L310.567 54.4232L309.588 54.22ZM299.86 49.356V50.356H299.867L299.874 50.3559L299.86 49.356ZM285.14 49.356V48.356H284.326L284.161 49.1535L285.14 49.356ZM279.636 75.98L278.657 75.7775L278.408 76.98H279.636V75.98ZM309.588 74.188L310.011 75.0942L310.023 75.0885L310.035 75.0824L309.588 74.188ZM317.652 65.484L318.631 65.6889L316.803 64.9554L317.652 65.484ZM313.044 86.5H251.732V88.5H313.044V86.5ZM251.966 88.4722C257.056 87.2469 260.246 83.314 261.667 77.0988L259.717 76.6532C258.407 82.3847 255.624 85.5345 251.498 86.5278L251.966 88.4722ZM261.669 77.0872L275.109 14.8792L273.155 14.4568L259.715 76.6648L261.669 77.0872ZM275.109 14.8817C275.704 12.1616 276.028 10.1834 276.028 9.036H274.028C274.028 9.93655 273.755 11.713 273.155 14.4543L275.109 14.8817ZM276.028 9.01328C275.982 7.01296 275.549 5.30132 274.639 3.96212C273.717 2.60405 272.366 1.71983 270.669 1.2835L270.171 3.22049C271.461 3.55217 272.371 4.18261 272.985 5.08588C273.611 6.00801 273.988 7.30437 274.028 9.05872L276.028 9.01328ZM270.42 3.252H328.148V1.252H270.42V3.252ZM327.168 2.05477L322.816 23.6868L324.776 24.0812L329.128 2.44923L327.168 2.05477ZM324.795 23.8406C324.616 19.7323 323.256 16.6821 320.452 15.0798L319.46 16.8162C321.434 17.9446 322.634 20.185 322.797 23.9274L324.795 23.8406ZM320.452 15.0798C317.858 13.5974 314.466 12.9 310.356 12.9V14.9C314.267 14.9 317.275 15.5679 319.46 16.8162L320.452 15.0798ZM310.356 12.9H292.564V14.9H310.356V12.9ZM291.585 13.694L286.465 38.014L288.423 38.426L293.543 14.106L291.585 13.694ZM287.444 39.22H302.164V37.22H287.444V39.22ZM302.135 39.2196C308.07 39.3941 312.409 37.9219 314.655 34.4064L312.969 33.3296C311.29 35.9581 307.864 37.3872 302.193 37.2204L302.135 39.2196ZM312.833 33.6648L308.609 54.0168L310.567 54.4232L314.791 34.0712L312.833 33.6648ZM310.576 54.0679C310.267 52.0556 309.105 50.5562 307.219 49.6136C305.391 48.6993 302.901 48.3125 299.846 48.3561L299.874 50.3559C302.793 50.3142 304.911 50.6954 306.325 51.4024C307.682 52.0811 308.397 53.0564 308.6 54.3721L310.576 54.0679ZM299.86 48.356H285.14V50.356H299.86V48.356ZM284.161 49.1535L278.657 75.7775L280.615 76.1824L286.119 49.5584L284.161 49.1535ZM279.636 76.98H298.068V74.98H279.636V76.98ZM298.068 76.98C303.234 76.98 307.251 76.3822 310.011 75.0942L309.165 73.2818C306.805 74.3831 303.142 74.98 298.068 74.98V76.98ZM310.035 75.0824C312.849 73.6753 315.659 70.5774 318.501 66.0126L316.803 64.9554C314.013 69.436 311.447 72.1407 309.141 73.2936L310.035 75.0824ZM316.673 65.2791L312.065 87.2951L314.023 87.7049L318.631 65.6889L316.673 65.2791Z" fill="white"/>
</svg>
