<svg width="409" height="90" viewBox="0 0 409 90" fill="none" xmlns="http://www.w3.org/2000/svg">
<path d="M60.304 83.276L60.8218 84.1315L61.1953 83.9054L61.2834 83.4778L60.304 83.276ZM48.016 87.884L47.7973 86.9082L47.7874 86.9104L47.7775 86.9129L48.016 87.884ZM8.72 80.972L8.01287 81.6791L8.01807 81.6842L8.72 80.972ZM7.568 29.26L6.70181 28.7603L6.70028 28.763L7.568 29.26ZM28.048 8.14L28.5688 8.9937L28.048 8.14ZM66.832 1.74L66.5842 2.7088L66.5948 2.71152L66.6055 2.714L66.832 1.74ZM75.408 5.324L76.3861 5.53234L76.5192 4.90738L76.008 4.524L75.408 5.324ZM70.8 26.956L69.8198 27.1538L71.7781 27.1643L70.8 26.956ZM36.496 18.764L37.1285 19.5385L37.1299 19.5374L36.496 18.764ZM24.336 35.276L25.2522 35.6768L24.336 35.276ZM24.336 72.268L25.138 71.6707L24.336 72.268ZM43.408 76.876L43.7737 77.8067L44.284 77.6063L44.3894 77.0682L43.408 76.876ZM46.992 58.572L47.9734 58.7642L47.9807 58.7267L47.9852 58.6888L46.992 58.572ZM42.64 48.844V47.844L42.3478 49.8003L42.64 48.844ZM73.104 48.844L73.3967 49.8002L73.104 47.844V48.844ZM65.552 57.804L66.5314 58.0058L66.5338 57.9944L66.5359 57.9829L65.552 57.804ZM59.7862 82.4205C56.6614 84.3118 52.6745 85.815 47.7973 86.9082L48.2347 88.8598C53.2562 87.7343 57.4613 86.1655 60.8218 84.1315L59.7862 82.4205ZM47.7775 86.9129C42.9919 88.0883 38.1227 88.676 33.168 88.676V90.676C38.2826 90.676 43.3121 90.0691 48.2545 88.8551L47.7775 86.9129ZM33.168 88.676C22.9484 88.676 15.0774 85.8332 9.42193 80.2598L8.01807 81.6842C14.1386 87.7161 22.5663 90.676 33.168 90.676V88.676ZM9.42711 80.2649C3.8605 74.6983 1.016 66.8324 1.016 56.524H-0.984C-0.984 67.2076 1.97417 75.6404 8.01289 81.6791L9.42711 80.2649ZM1.016 56.524C1.016 47.3254 3.48066 38.4074 8.43573 29.757L6.70028 28.763C1.58601 37.6912 -0.984 46.9492 -0.984 56.524H1.016ZM8.43419 29.7597C13.4727 21.0263 20.1821 14.1096 28.5688 8.9937L27.5272 7.2863C18.8473 12.5811 11.9033 19.7443 6.70182 28.7603L8.43419 29.7597ZM28.5688 8.9937C36.944 3.88479 46.065 1.33199 55.952 1.33199V-0.668007C45.7004 -0.668007 36.2186 1.98454 27.5272 7.2863L28.5688 8.9937ZM55.952 1.33199C59.4478 1.33199 62.9912 1.78967 66.5842 2.7088L67.0798 0.771194C63.3341 -0.187019 59.6242 -0.668007 55.952 -0.668007V1.33199ZM66.6055 2.714C70.1979 3.54946 72.9107 4.70098 74.808 6.124L76.008 4.524C73.8094 2.87501 70.8047 1.6372 67.0585 0.765991L66.6055 2.714ZM74.4299 5.11565L69.8219 26.7477L71.7781 27.1643L76.3861 5.53234L74.4299 5.11565ZM71.7803 26.7582C70.7661 21.7317 68.68 17.8501 65.4447 15.2344C62.2112 12.62 57.9458 11.364 52.752 11.364V13.364C57.6276 13.364 61.4048 14.54 64.1873 16.7896C66.968 19.0379 68.8712 22.4523 69.8198 27.1538L71.7803 26.7582ZM52.752 11.364C46.8459 11.364 41.2099 13.6072 35.8621 17.9906L37.1299 19.5374C42.1928 15.3875 47.3941 13.364 52.752 13.364V11.364ZM35.8635 17.9895C30.6058 22.2833 26.4619 27.9219 23.4198 34.8752L25.2522 35.6768C28.1834 28.9768 32.1462 23.6074 37.1285 19.5385L35.8635 17.9895ZM23.4198 34.8752C20.3801 41.8231 18.856 48.9566 18.856 56.268H20.856C20.856 49.2434 22.3186 42.3822 25.2522 35.6768L23.4198 34.8752ZM18.856 56.268C18.856 63.0685 20.3821 68.6328 23.534 72.8653L25.138 71.6707C22.3166 67.8819 20.856 62.7795 20.856 56.268H18.856ZM23.534 72.8653C26.7286 77.1552 31.2644 79.284 37.008 79.284V77.284C31.8289 77.284 27.9167 75.4021 25.138 71.6707L23.534 72.8653ZM37.008 79.284C39.0473 79.284 41.3078 78.7755 43.7737 77.8067L43.0423 75.9453C40.7295 76.8539 38.7234 77.284 37.008 77.284V79.284ZM44.3894 77.0682L47.9734 58.7642L46.0106 58.3798L42.4266 76.6838L44.3894 77.0682ZM47.9852 58.6888C48.154 57.2536 48.248 56.2528 48.248 55.756H46.248C46.248 56.1125 46.1713 56.989 45.9989 58.4552L47.9852 58.6888ZM48.248 55.756C48.248 53.7869 47.836 52.0832 46.9281 50.7213C46.0119 49.3471 44.652 48.4131 42.9322 47.8876L42.3478 49.8003C43.7 50.2135 44.6441 50.9009 45.264 51.8307C45.892 52.7728 46.248 54.0557 46.248 55.756H48.248ZM42.64 49.844H73.104V47.844H42.64V49.844ZM72.8113 47.8878C70.5593 48.5772 68.7125 49.7419 67.3154 51.3995C65.9219 53.0528 65.0191 55.1446 64.5681 57.6251L66.5359 57.9829C66.9382 55.7701 67.7208 54.0218 68.8446 52.6885C69.9648 51.3595 71.4674 50.3908 73.3967 49.8002L72.8113 47.8878ZM64.5726 57.6022L59.3246 83.0742L61.2834 83.4778L66.5314 58.0058L64.5726 57.6022ZM150.684 74.316L151.679 74.2189L151.678 74.2071L150.684 74.316ZM152.732 83.148L151.813 83.5419L151.821 83.5621L151.831 83.5818L152.732 83.148ZM156.828 87.5V88.5L157.174 86.5617L156.828 87.5ZM128.028 87.5L127.799 86.5266L128.028 88.5V87.5ZM131.356 84.684L130.462 84.2368L131.356 84.684ZM132.124 73.42L131.131 73.5391L131.132 73.544L132.124 73.42ZM131.484 67.532L132.479 67.4372L132.393 66.532H131.484V67.532ZM100.38 67.532V66.532H99.8024L99.5138 67.0323L100.38 67.532ZM96.54 74.188L97.402 74.695L97.4062 74.6877L96.54 74.188ZM95.516 87.5V88.5L95.7791 86.5352L95.516 87.5ZM69.02 87.5L68.8105 86.5222L69.02 88.5V87.5ZM74.14 83.532L74.8728 84.2124L74.14 83.532ZM81.564 73.42L80.7225 72.8796L80.7169 72.8885L81.564 73.42ZM127.516 1.868V0.867996H126.97L126.675 1.32762L127.516 1.868ZM142.748 1.868L143.742 1.75911L143.644 0.867996H142.748V1.868ZM130.204 56.396V57.396H131.305L131.199 56.3004L130.204 56.396ZM127.132 24.396L128.127 24.3004L127.841 21.3211L126.279 23.874L127.132 24.396ZM107.548 56.396L106.695 55.874L105.764 57.396H107.548V56.396ZM149.689 74.4131C150.037 77.9805 150.737 81.0315 151.813 83.5419L153.651 82.7541C152.679 80.4858 152.014 77.6488 151.679 74.2189L149.689 74.4131ZM151.831 83.5818C153 86.0087 154.522 87.7162 156.482 88.4383L157.174 86.5617C155.891 86.0891 154.683 84.8953 153.633 82.7142L151.831 83.5818ZM156.828 86.5H128.028V88.5H156.828V86.5ZM128.257 88.4734C130.042 88.0533 131.372 86.8875 132.25 85.1312L130.462 84.2368C129.804 85.5525 128.915 86.264 127.799 86.5266L128.257 88.4734ZM132.25 85.1312C133.115 83.4014 133.508 81.1366 133.508 78.412H131.508C131.508 80.9781 131.133 82.8946 130.462 84.2368L132.25 85.1312ZM133.508 78.412C133.508 77.0733 133.375 75.3635 133.116 73.296L131.132 73.544C131.385 75.5725 131.508 77.1907 131.508 78.412H133.508ZM133.117 73.3008C132.862 71.1741 132.649 69.2197 132.479 67.4372L130.489 67.6268C130.66 69.4283 130.874 71.3992 131.131 73.5391L133.117 73.3008ZM131.484 66.532H100.38V68.532H131.484V66.532ZM99.5138 67.0323L95.6738 73.6883L97.4062 74.6877L101.246 68.0317L99.5138 67.0323ZM95.6781 73.681C94.3839 75.8811 93.3981 77.8044 92.7333 79.4443C92.0752 81.0675 91.7 82.4883 91.7 83.66H93.7C93.7 82.869 93.9648 81.7298 94.5867 80.1957C95.2019 78.6783 96.1361 76.8469 97.4019 74.695L95.6781 73.681ZM91.7 83.66C91.7 84.8349 91.9703 85.8919 92.5976 86.7474C93.2287 87.6079 94.1468 88.1631 95.2529 88.4648L95.7791 86.5352C95.0079 86.3249 94.518 85.9841 94.2104 85.5646C93.8991 85.1401 93.7 84.5331 93.7 83.66H91.7ZM95.516 86.5H69.02V88.5H95.516V86.5ZM69.2295 88.4778C70.0462 88.3028 70.9143 87.7995 71.8086 87.1064C72.7207 86.3995 73.7431 85.429 74.8728 84.2124L73.4072 82.8515C72.3182 84.0243 71.378 84.9098 70.5834 85.5256C69.7711 86.1552 69.1884 86.4412 68.8105 86.5222L69.2295 88.4778ZM74.8728 84.2124C77.1512 81.7588 79.6637 78.33 82.4111 73.9515L80.7169 72.8885C78.0029 77.214 75.5661 80.5265 73.4072 82.8515L74.8728 84.2124ZM82.4054 73.9604L128.357 2.40837L126.675 1.32762L80.7226 72.8796L82.4054 73.9604ZM127.516 2.868H142.748V0.867996H127.516V2.868ZM141.754 1.97689L149.69 74.4249L151.678 74.2071L143.742 1.75911L141.754 1.97689ZM131.199 56.3004L128.127 24.3004L126.137 24.4916L129.209 56.4916L131.199 56.3004ZM126.279 23.874L106.695 55.874L108.401 56.918L127.985 24.918L126.279 23.874ZM107.548 57.396H130.204V55.396H107.548V57.396ZM229.417 76.876L230.354 76.5264L230.35 76.5155L230.345 76.5046L229.417 76.876ZM238.377 87.5V88.5L238.712 86.5578L238.377 87.5ZM213.417 87.5L212.472 87.8261L212.704 88.5H213.417V87.5ZM203.305 58.188L204.25 57.8619L204.247 57.8521L204.243 57.8423L203.305 58.188ZM194.729 50.892V49.892H193.928L193.753 50.6736L194.729 50.892ZM188.713 77.772L189.679 78.0297L189.684 78.0101L189.689 77.9904L188.713 77.772ZM192.553 87.5V88.5L192.861 86.5486L192.553 87.5ZM162.473 87.5L162.325 86.5111L162.473 88.5V87.5ZM167.209 84.812L167.936 85.4986L167.945 85.4888L167.954 85.4788L167.209 84.812ZM170.281 78.284L171.258 78.4977L171.259 78.4929L170.281 78.284ZM184.361 12.364L185.339 12.5729L185.342 12.5601L184.361 12.364ZM180.009 2.252V1.252L179.731 3.21256L180.009 2.252ZM234.793 8.14L234.172 8.92354L234.18 8.93008L234.793 8.14ZM235.177 41.804L235.908 42.4859L235.914 42.4797L235.177 41.804ZM217.897 50.636L217.773 49.6437L215.645 49.9097L217.217 51.3688L217.897 50.636ZM221.225 56.396L220.289 56.7471L220.292 56.7573L220.297 56.7674L221.225 56.396ZM218.793 36.94L218.095 36.2235L218.086 36.2329L218.793 36.94ZM220.585 16.204L219.836 16.8666L219.843 16.8745L219.85 16.8823L220.585 16.204ZM202.793 12.876V11.876H201.98L201.814 12.6715L202.793 12.876ZM196.777 41.676L195.798 41.4715L195.547 42.676H196.777V41.676ZM228.48 77.2256C230.664 83.0797 233.808 86.9369 238.042 88.4422L238.712 86.5578C235.266 85.3324 232.436 82.107 230.354 76.5264L228.48 77.2256ZM238.377 86.5H213.417V88.5H238.377V86.5ZM214.362 87.1739L204.25 57.8619L202.36 58.5141L212.472 87.8261L214.362 87.1739ZM204.243 57.8423C203.332 55.3685 202.36 53.4321 201.306 52.0964C200.256 50.7663 199.006 49.892 197.545 49.892V51.892C198.132 51.892 198.866 52.2337 199.736 53.3356C200.602 54.4319 201.486 56.1435 202.367 58.5337L204.243 57.8423ZM197.545 49.892H194.729V51.892H197.545V49.892ZM193.753 50.6736L187.737 77.5536L189.689 77.9904L195.705 51.1104L193.753 50.6736ZM187.747 77.5143C187.391 78.8469 187.201 80.0469 187.201 81.1H189.201C189.201 80.2758 189.352 79.2571 189.679 78.0297L187.747 77.5143ZM187.201 81.1C187.201 82.9068 187.595 84.4837 188.462 85.7583C189.334 87.0407 190.623 87.9266 192.245 88.4514L192.861 86.5486C191.582 86.1347 190.695 85.4846 190.116 84.6337C189.532 83.775 189.201 82.6212 189.201 81.1H187.201ZM192.553 86.5H162.473V88.5H192.553V86.5ZM162.621 88.4889C164.595 88.1928 166.367 87.1598 167.936 85.4986L166.482 84.1254C165.15 85.5362 163.764 86.2952 162.325 86.5111L162.621 88.4889ZM167.954 85.4788C169.548 83.6973 170.634 81.3499 171.258 78.4977L169.304 78.0703C168.733 80.6794 167.771 82.684 166.464 84.1452L167.954 85.4788ZM171.259 78.4929L185.339 12.5729L183.383 12.1551L169.303 78.0751L171.259 78.4929ZM185.342 12.5601C185.68 10.8679 185.873 9.62014 185.873 8.908H183.873C183.873 9.39051 183.725 10.4467 183.38 12.1679L185.342 12.5601ZM185.873 8.908C185.873 7.00483 185.431 5.35231 184.464 4.02998C183.496 2.70421 182.071 1.8079 180.287 1.29144L179.731 3.21256C181.189 3.63476 182.197 4.31712 182.85 5.21001C183.505 6.10635 183.873 7.3125 183.873 8.908H185.873ZM180.009 3.252H215.081V1.252H180.009V3.252ZM215.081 3.252C223.115 3.252 229.446 5.17528 234.172 8.9235L235.414 7.3565C230.242 3.25405 223.431 1.252 215.081 1.252V3.252ZM234.18 8.93008C238.865 12.5646 241.217 17.5525 241.217 24.012H243.217C243.217 16.9888 240.62 11.3954 235.406 7.34991L234.18 8.93008ZM241.217 24.012C241.217 30.4949 238.97 36.1865 234.44 41.1283L235.914 42.4797C240.771 37.1815 243.217 31.0118 243.217 24.012H241.217ZM234.446 41.1221C229.912 45.9854 224.367 48.8195 217.773 49.6437L218.021 51.6283C225.08 50.7459 231.055 47.6919 235.908 42.4859L234.446 41.1221ZM217.217 51.3688C218.24 52.3192 219.283 54.0643 220.289 56.7471L222.161 56.0449C221.119 53.2664 219.943 51.1715 218.577 49.9032L217.217 51.3688ZM220.297 56.7674L228.489 77.2474L230.345 76.5046L222.153 56.0246L220.297 56.7674ZM206.121 42.676C211.624 42.676 216.121 41.0262 219.5 37.6471L218.086 36.2329C215.15 39.1685 211.199 40.676 206.121 40.676V42.676ZM219.491 37.6565C222.942 34.2958 224.657 30.0194 224.657 24.908H222.657C222.657 29.5245 221.129 33.2695 218.095 36.2235L219.491 37.6565ZM224.657 24.908C224.657 21.1225 223.569 17.9627 221.32 15.5257L219.85 16.8823C221.697 18.8826 222.657 21.5255 222.657 24.908H224.657ZM221.334 15.5414C219.168 13.0927 216.327 11.876 212.905 11.876V13.876C215.797 13.876 218.077 14.878 219.836 16.8666L221.334 15.5414ZM212.905 11.876H202.793V13.876H212.905V11.876ZM201.814 12.6715L195.798 41.4715L197.756 41.8805L203.772 13.0805L201.814 12.6715ZM196.777 42.676H206.121V40.676H196.777V42.676ZM302.919 87.5V88.5H303.731L303.898 87.7049L302.919 87.5ZM241.607 87.5L241.373 86.5278L241.607 88.5V87.5ZM250.567 76.876L251.542 77.0988L251.544 77.0872L250.567 76.876ZM264.007 14.668L263.03 14.4543L263.03 14.4568L264.007 14.668ZM264.903 9.036H265.903V9.02463L265.903 9.01328L264.903 9.036ZM260.295 2.252V1.252L260.046 3.22049L260.295 2.252ZM318.023 2.252L319.003 2.44923L319.244 1.252H318.023V2.252ZM313.671 23.884L312.672 23.9274L314.651 24.0812L313.671 23.884ZM309.831 15.948L309.335 16.8162L309.831 15.948ZM282.439 13.9V12.9H281.628L281.46 13.694L282.439 13.9ZM277.319 38.22L276.34 38.014L276.087 39.22H277.319V38.22ZM292.039 38.22L292.068 37.2204L292.054 37.22H292.039V38.22ZM303.687 33.868L304.666 34.0712L302.844 33.3296L303.687 33.868ZM299.463 54.22L298.475 54.3721L300.442 54.4232L299.463 54.22ZM289.735 49.356V50.356H289.742L289.749 50.3559L289.735 49.356ZM275.015 49.356V48.356H274.201L274.036 49.1535L275.015 49.356ZM269.511 75.98L268.532 75.7775L268.283 76.98H269.511V75.98ZM299.463 74.188L299.886 75.0942L299.898 75.0885L299.91 75.0824L299.463 74.188ZM307.527 65.484L308.506 65.6889L306.678 64.9554L307.527 65.484ZM302.919 86.5H241.607V88.5H302.919V86.5ZM241.841 88.4722C246.931 87.2469 250.121 83.314 251.542 77.0988L249.592 76.6532C248.282 82.3847 245.499 85.5345 241.373 86.5278L241.841 88.4722ZM251.544 77.0872L264.984 14.8792L263.03 14.4568L249.59 76.6648L251.544 77.0872ZM264.984 14.8817C265.579 12.1616 265.903 10.1834 265.903 9.036H263.903C263.903 9.93655 263.63 11.713 263.03 14.4543L264.984 14.8817ZM265.903 9.01328C265.857 7.01296 265.424 5.30132 264.514 3.96212C263.592 2.60405 262.241 1.71983 260.544 1.2835L260.046 3.22049C261.336 3.55217 262.246 4.18261 262.86 5.08588C263.486 6.00801 263.863 7.30437 263.903 9.05872L265.903 9.01328ZM260.295 3.252H318.023V1.252H260.295V3.252ZM317.043 2.05477L312.691 23.6868L314.651 24.0812L319.003 2.44923L317.043 2.05477ZM314.67 23.8406C314.491 19.7323 313.131 16.6821 310.327 15.0798L309.335 16.8162C311.309 17.9446 312.509 20.185 312.672 23.9274L314.67 23.8406ZM310.327 15.0798C307.733 13.5974 304.341 12.9 300.231 12.9V14.9C304.142 14.9 307.15 15.5679 309.335 16.8162L310.327 15.0798ZM300.231 12.9H282.439V14.9H300.231V12.9ZM281.46 13.694L276.34 38.014L278.298 38.426L283.418 14.106L281.46 13.694ZM277.319 39.22H292.039V37.22H277.319V39.22ZM292.01 39.2196C297.945 39.3941 302.284 37.9219 304.53 34.4064L302.844 33.3296C301.165 35.9581 297.739 37.3872 292.068 37.2204L292.01 39.2196ZM302.708 33.6648L298.484 54.0168L300.442 54.4232L304.666 34.0712L302.708 33.6648ZM300.451 54.0679C300.142 52.0556 298.98 50.5562 297.094 49.6136C295.266 48.6993 292.776 48.3125 289.721 48.3561L289.749 50.3559C292.668 50.3142 294.786 50.6954 296.2 51.4024C297.557 52.0811 298.272 53.0564 298.475 54.3721L300.451 54.0679ZM289.735 48.356H275.015V50.356H289.735V48.356ZM274.036 49.1535L268.532 75.7775L270.49 76.1824L275.994 49.5584L274.036 49.1535ZM269.511 76.98H287.943V74.98H269.511V76.98ZM287.943 76.98C293.109 76.98 297.126 76.3822 299.886 75.0942L299.04 73.2818C296.68 74.3831 293.017 74.98 287.943 74.98V76.98ZM299.91 75.0824C302.724 73.6753 305.534 70.5774 308.376 66.0126L306.678 64.9554C303.888 69.436 301.322 72.1407 299.016 73.2936L299.91 75.0824ZM306.548 65.2791L301.94 87.2951L303.898 87.7049L308.506 65.6889L306.548 65.2791ZM385.171 88.012V89.012H385.978L386.149 88.2229L385.171 88.012ZM372.499 88.012L371.533 88.2697L371.731 89.012H372.499V88.012ZM371.987 86.092L372.953 85.8343L372.95 85.8239L372.947 85.8136L371.987 86.092ZM365.971 70.348L366.865 69.9008L366.861 69.8916L366.856 69.8825L365.971 70.348ZM345.235 30.924L346.12 30.4585L344.826 27.9983L344.256 30.719L345.235 30.924ZM334.995 79.82L334.016 79.615L333.995 79.7164V79.82H334.995ZM334.995 81.1H333.995V81.1125L333.995 81.125L334.995 81.1ZM339.859 87.5V88.5L340.12 86.5346L339.859 87.5ZM312.979 87.5L312.879 86.505L312.979 88.5V87.5ZM317.715 85.068L317.008 84.3609L317.715 85.068ZM320.915 78.796L321.89 79.0163L321.892 79.0106L320.915 78.796ZM332.307 6.988L331.454 7.51056L331.464 7.52682L331.475 7.5427L332.307 6.988ZM327.315 2.252V1.252L327.028 3.20982L327.315 2.252ZM350.611 2.252L351.498 1.78951L351.217 1.252H350.611V2.252ZM378.387 55.5L377.5 55.9625L378.794 58.4426L379.366 55.7044L378.387 55.5ZM387.475 11.98L388.454 12.1844L388.457 12.1691L388.46 12.1538L387.475 11.98ZM382.867 2.252V1.252L382.551 3.20068L382.867 2.252ZM408.851 2.252L409.18 3.1965L408.851 1.252V2.252ZM401.683 11.468L402.661 11.6789L402.664 11.6614L402.667 11.6438L401.683 11.468ZM385.171 87.012H372.499V89.012H385.171V87.012ZM373.465 87.7543L372.953 85.8343L371.021 86.3497L371.533 88.2697L373.465 87.7543ZM372.947 85.8136C371.227 79.878 369.201 74.572 366.865 69.9008L365.077 70.7952C367.349 75.34 369.334 80.53 371.027 86.3704L372.947 85.8136ZM366.856 69.8825L346.12 30.4585L344.35 31.3895L365.086 70.8135L366.856 69.8825ZM344.256 30.719L334.016 79.615L335.974 80.025L346.214 31.129L344.256 30.719ZM333.995 79.82V81.1H335.995V79.82H333.995ZM333.995 81.125C334.042 82.9838 334.51 84.5904 335.479 85.8651C336.451 87.1438 337.854 87.9941 339.598 88.4654L340.12 86.5346C338.706 86.1526 337.721 85.5096 337.071 84.6549C336.419 83.7962 336.034 82.6295 335.995 81.075L333.995 81.125ZM339.859 86.5H312.979V88.5H339.859V86.5ZM313.078 88.495C315.058 88.2971 316.842 87.3557 318.422 85.7751L317.008 84.3609C315.687 85.6816 314.314 86.3616 312.879 86.505L313.078 88.495ZM318.422 85.7751C320.121 84.0758 321.262 81.8003 321.89 79.0163L319.94 78.5757C319.374 81.0824 318.381 82.9882 317.008 84.3609L318.422 85.7751ZM321.892 79.0106C326.542 57.8475 330.031 41.8348 332.357 30.9734C333.52 25.5432 334.393 21.3979 334.975 18.5396C335.266 17.1111 335.485 15.9998 335.632 15.2086C335.706 14.8136 335.762 14.4926 335.8 14.2493C335.834 14.0386 335.867 13.8069 335.867 13.644H333.867C333.867 13.6198 333.864 13.6877 333.825 13.9377C333.79 14.155 333.738 14.4557 333.666 14.8434C333.522 15.6175 333.305 16.7156 333.015 18.1404C332.435 20.9887 331.564 25.1262 330.401 30.5546C328.076 41.4106 324.589 57.4191 319.938 78.5814L321.892 79.0106ZM335.867 13.644C335.867 11.4797 334.892 9.06258 333.139 6.4333L331.475 7.5427C333.135 10.0334 333.867 12.0536 333.867 13.644H335.867ZM333.16 6.46544C331.497 3.75229 329.666 1.91327 327.602 1.29417L327.028 3.20982C328.377 3.61473 329.875 4.93304 331.454 7.51056L333.16 6.46544ZM327.315 3.252H350.611V1.252H327.315V3.252ZM349.724 2.71449L377.5 55.9625L379.274 55.0375L351.498 1.78951L349.724 2.71449ZM379.366 55.7044L388.454 12.1844L386.496 11.7756L377.408 55.2956L379.366 55.7044ZM388.46 12.1538C388.714 10.7151 388.859 9.64922 388.859 9.036H386.859C386.859 9.44676 386.748 10.3436 386.49 11.8062L388.46 12.1538ZM388.859 9.036C388.859 7.16309 388.4 5.5241 387.416 4.18731C386.434 2.85287 384.994 1.90686 383.183 1.30331L382.551 3.20068C384.068 3.70647 385.124 4.44579 385.806 5.37268C386.486 6.29723 386.859 7.49556 386.859 9.036H388.859ZM382.867 3.252H408.851V1.252H382.867V3.252ZM408.522 1.3075C404.192 2.81374 401.603 6.22917 400.699 11.2922L402.667 11.6438C403.47 7.14949 405.659 4.42091 409.18 3.1965L408.522 1.3075ZM400.706 11.2571L384.193 87.8011L386.149 88.2229L402.661 11.6789L400.706 11.2571Z" fill="white"/>
</svg>
