<svg width="179" height="64" viewBox="0 0 179 64" fill="none" xmlns="http://www.w3.org/2000/svg">
<path d="M27.9193 46.3827L27.2863 46.2486L27.2857 46.2506L27.9193 46.3827ZM22.4516 58.8968L21.9707 58.4636L21.9662 58.4688L21.9616 58.474L22.4516 58.8968ZM6.29692 61.8803L6.57135 61.2943L6.561 61.2892L6.54997 61.284L6.29692 61.8803ZM2.32039 58.6482L2.49385 58.024L0.930786 57.5902L1.76573 58.9816L2.32039 58.6482ZM16.2382 44.6423L16.8693 44.7873L16.8706 44.7821L16.8712 44.7763L16.2382 44.6423ZM21.1261 1.46442V0.816956L20.9733 2.09374L21.1261 1.46442ZM41.3401 1.46442L41.5032 2.09115L41.3401 0.816956V1.46442ZM35.7895 9.08892L35.1566 8.95294V8.95489L35.7895 9.08892ZM27.2857 46.2506C26.1375 51.7741 24.3486 55.82 21.9707 58.4636L22.9325 59.3299C25.5252 56.4487 27.3815 52.1522 28.553 46.5147L27.2857 46.2506ZM21.9616 58.474C19.6763 61.1241 16.4725 62.476 12.2617 62.476V63.7709C16.7774 63.7709 20.3669 62.305 22.9415 59.3196L21.9616 58.474ZM12.2617 62.476C10.1349 62.476 8.24247 62.0778 6.57135 61.2943L6.02249 62.4662C7.88649 63.3403 9.96991 63.7709 12.2617 63.7709V62.476ZM6.54997 61.284C4.82383 60.5517 3.61872 59.554 2.87506 58.3154L1.76573 58.9816C2.67896 60.5044 4.12484 61.6621 6.04386 62.4766L6.54997 61.284ZM2.14694 59.2723C3.19544 59.563 4.2478 59.71 5.30278 59.71V58.4151C4.36948 58.4151 3.43362 58.2856 2.49385 58.024L2.14694 59.2723ZM5.30278 59.71C8.08518 59.71 10.4437 58.3795 12.3633 55.8485C14.2655 53.3403 15.7554 49.6336 16.8693 44.7873L15.6072 44.4973C14.5121 49.2645 13.0746 52.7679 11.3317 55.0664C9.60616 57.3422 7.60171 58.4151 5.30278 58.4151V59.71ZM16.8712 44.7763L24.2444 9.9688L22.9784 9.7001L15.6053 44.5083L16.8712 44.7763ZM24.2444 9.9688C24.6308 8.14555 24.8385 6.78783 24.8385 5.93966H23.5441C23.5441 6.63827 23.3648 7.87685 22.9784 9.7001L24.2444 9.9688ZM24.8385 5.93966C24.8385 4.61366 24.5667 3.47736 23.959 2.59034C23.3435 1.69166 22.4289 1.11478 21.2788 0.835075L20.9733 2.09374C21.8665 2.31129 22.4852 2.7289 22.891 3.32197C23.3053 3.9267 23.5441 4.77941 23.5441 5.93966H24.8385ZM21.1261 2.11188H41.3401V0.816956H21.1261V2.11188ZM41.177 0.837663C38.062 1.64828 36.1151 4.49646 35.1566 8.95294L36.4225 9.22488C37.3416 4.95164 39.0955 2.71725 41.5032 2.09115L41.177 0.837663ZM35.1566 8.95489L27.2863 46.2486L28.5523 46.5167L36.4225 9.22292L35.1566 8.95489ZM52.9545 50.3607L52.3216 50.2266L52.3196 50.2337L52.9545 50.3607ZM55.2742 56.6592V57.3066L55.3279 56.0136L55.2742 56.6592ZM35.8057 56.6592L35.7377 56.0149L35.8057 57.3066V56.6592ZM38.7881 54.9188L38.3182 54.4733L38.3118 54.4805L38.3059 54.4869L38.7881 54.9188ZM40.8592 50.6922L41.4916 50.8307L41.4922 50.8262L40.8592 50.6922ZM49.8893 8.01154L50.5223 8.14557L50.5242 8.13843L49.8893 8.01154ZM49.3094 2.70753L48.7961 3.10249L48.8136 3.1245L48.8324 3.14521L49.3094 2.70753ZM47.5696 1.46442V0.816956L47.4538 2.1015L47.5696 1.46442ZM67.2866 1.46442L67.4497 2.09115L67.2866 0.816956V1.46442ZM61.9846 7.68003L61.3529 7.53758L61.3516 7.546L61.9846 7.68003ZM52.3196 50.2337C52.1009 51.3293 51.9759 52.1373 51.9759 52.5983H53.2704C53.2704 52.2856 53.3662 51.6018 53.5895 50.4876L52.3196 50.2337ZM51.9759 52.5983C51.9759 53.9981 52.2652 55.1687 52.9545 55.9962L53.9487 55.1674C53.5338 54.6689 53.2704 53.8505 53.2704 52.5983H51.9759ZM52.9545 55.9962C53.583 56.7511 54.3377 57.2309 55.2205 57.3047L55.3279 56.0136C54.8852 55.9767 54.4244 55.7385 53.9487 55.1674L52.9545 55.9962ZM55.2742 56.0117H35.8057V57.3066H55.2742V56.0117ZM35.8737 57.3034C37.1299 57.1706 38.2606 56.4792 39.2703 55.3506L38.3059 54.4869C37.4374 55.4581 36.5804 55.9262 35.7377 56.0149L35.8737 57.3034ZM39.258 55.3642C40.3512 54.2098 41.0858 52.685 41.4916 50.8307L40.2269 50.5536C39.8593 52.2351 39.2133 53.5287 38.3182 54.4733L39.258 55.3642ZM41.4922 50.8262L50.5223 8.14557L49.2563 7.87752L40.2263 50.5581L41.4922 50.8262ZM50.5242 8.13843C50.743 7.04293 50.8679 6.23489 50.8679 5.7739H49.5734C49.5734 6.08662 49.4777 6.77035 49.2544 7.88463L50.5242 8.13843ZM50.8679 5.7739C50.8679 4.31452 50.5495 3.10248 49.7864 2.26985L48.8324 3.14521C49.2848 3.63858 49.5734 4.47056 49.5734 5.7739H50.8679ZM49.8226 2.31259C49.2168 1.52592 48.5107 0.97752 47.6855 0.827309L47.4538 2.1015C47.8434 2.17208 48.2971 2.45309 48.7961 3.10249L49.8226 2.31259ZM47.5696 2.11188H67.2866V0.816956H47.5696V2.11188ZM67.1235 0.837663C64.0699 1.6321 62.1645 3.94094 61.3529 7.53758L62.6156 7.82247C63.3502 4.56833 64.9806 2.73343 67.4497 2.09115L67.1235 0.837663ZM61.3516 7.546L52.3216 50.2266L53.5875 50.4947L62.6175 7.81405L61.3516 7.546ZM108.744 56.9907V57.6381H109.267L109.377 57.1273L108.744 56.9907ZM100.543 56.9907L99.9176 57.1577L100.046 57.6381H100.543V56.9907ZM100.211 55.7475L100.837 55.5805L100.835 55.574L100.833 55.5675L100.211 55.7475ZM96.3178 45.5539L96.8964 45.2645L96.8938 45.2587L96.8906 45.2522L96.3178 45.5539ZM82.897 20.0284L83.4698 19.7267L82.6323 18.1339L82.2633 19.8957L82.897 20.0284ZM76.2694 51.6867L75.6358 51.5539L75.6222 51.6193V51.6867H76.2694ZM76.2694 52.5154H75.6222V52.5232V52.5316L76.2694 52.5154ZM79.4175 56.6592V57.3066L79.5864 56.0344L79.4175 56.6592ZM62.0202 56.6592L61.9555 56.0149L62.0202 57.3066V56.6592ZM67.1565 51.0237L67.7876 51.1661L67.7889 51.1629L67.1565 51.0237ZM74.5297 4.53079L73.9776 4.8694L73.9841 4.87977L73.9912 4.89012L74.5297 4.53079ZM71.2988 1.46442V0.816956L71.113 2.08467L71.2988 1.46442ZM86.3765 1.46442L86.9505 1.16529L86.7686 0.816956H86.3765V1.46442ZM104.354 35.9404L103.78 36.2395L104.617 37.8459L104.987 36.0725L104.354 35.9404ZM110.236 7.76291L110.869 7.89498L110.871 7.88528L110.873 7.87556L110.236 7.76291ZM107.253 1.46442V0.816956L107.049 2.07884L107.253 1.46442ZM124.071 1.46442L124.284 2.07562L124.071 0.816956V1.46442ZM119.431 7.4314L120.064 7.56801L120.066 7.55637L120.068 7.54537L119.431 7.4314ZM108.744 56.3432H100.543V57.6381H108.744V56.3432ZM101.168 56.8236L100.837 55.5805L99.5862 55.9146L99.9176 57.1577L101.168 56.8236ZM100.833 55.5675C99.7196 51.7242 98.4083 48.2888 96.8964 45.2645L95.7392 45.8433C97.2097 48.786 98.4944 52.1464 99.5901 55.9275L100.833 55.5675ZM96.8906 45.2522L83.4698 19.7267L82.3242 20.3301L95.745 45.8556L96.8906 45.2522ZM82.2633 19.8957L75.6358 51.5539L76.903 51.8194L83.5306 20.1611L82.2633 19.8957ZM75.6222 51.6867V52.5154H76.9166V51.6867H75.6222ZM75.6222 52.5316C75.6526 53.7352 75.9555 54.775 76.5827 55.6006C77.2118 56.4287 78.1198 56.979 79.2486 57.284L79.5864 56.0344C78.6713 55.787 78.0337 55.3707 77.613 54.8171C77.191 54.261 76.9419 53.506 76.9166 52.4992L75.6222 52.5316ZM79.4175 56.0117H62.0202V57.3066H79.4175V56.0117ZM62.0849 57.3034C63.3657 57.1752 64.5204 56.5659 65.543 55.5423L64.6278 54.6268C63.7728 55.4821 62.8842 55.9224 61.9555 56.0149L62.0849 57.3034ZM65.543 55.5423C66.6426 54.4422 67.3811 52.9686 67.7876 51.1661L66.5255 50.8812C66.1592 52.5037 65.5165 53.7378 64.6278 54.6268L65.543 55.5423ZM67.7889 51.1629C70.7985 37.4606 73.0566 27.0928 74.562 20.0601C75.3148 16.5444 75.8798 13.8607 76.2565 12.0103C76.4448 11.085 76.5866 10.3657 76.6817 9.85357C76.7296 9.59782 76.7658 9.38997 76.7904 9.23199C76.8124 9.09602 76.8338 8.94583 76.8338 8.84029H75.5394C75.5394 8.82475 75.5374 8.86876 75.5122 9.03063C75.4895 9.17113 75.4559 9.36601 75.4093 9.61658C75.3161 10.1184 75.1756 10.8293 74.9879 11.7513C74.6125 13.5959 74.0488 16.2744 73.2961 19.7895C71.7913 26.8183 69.5344 37.1829 66.5242 50.8844L67.7889 51.1629ZM76.8338 8.84029C76.8338 7.43918 76.2027 5.87427 75.0682 4.17145L73.9912 4.89012C75.0656 6.5023 75.5394 7.81083 75.5394 8.84029H76.8338ZM75.0817 4.19216C74.0054 2.4356 72.8204 1.24492 71.4845 0.844144L71.113 2.08467C71.9861 2.34689 72.9556 3.20024 73.9776 4.8694L75.0817 4.19216ZM71.2988 2.11188H86.3765V0.816956H71.2988V2.11188ZM85.8024 1.76353L103.78 36.2395L104.928 35.6413L86.9505 1.16529L85.8024 1.76353ZM104.987 36.0725L110.869 7.89498L109.602 7.63083L103.72 35.8083L104.987 36.0725ZM110.873 7.87556C111.038 6.94386 111.131 6.25368 111.131 5.85679H109.837C109.837 6.1229 109.765 6.70366 109.598 7.65025L110.873 7.87556ZM111.131 5.85679C111.131 4.64409 110.834 3.58291 110.197 2.71725C109.562 1.85354 108.63 1.24104 107.458 0.849973L107.049 2.07884C108.031 2.40581 108.714 2.88493 109.155 3.48512C109.596 4.08338 109.837 4.8597 109.837 5.85679H111.131ZM107.253 2.11188H124.071V0.816956H107.253V2.11188ZM123.858 0.853213C121.055 1.82829 119.38 4.03935 118.794 7.31745L120.068 7.54537C120.588 4.63503 122.005 2.86876 124.284 2.07562L123.858 0.853213ZM118.798 7.29479L108.111 56.854L109.377 57.1273L120.064 7.56801L118.798 7.29479ZM162.23 49.6976L162.833 49.4633L162.831 49.4562L162.23 49.6976ZM167.201 56.6592V57.3066L167.428 56.0531L167.201 56.6592ZM148.809 56.6592L148.631 56.0363L148.809 57.3066V56.6592ZM149.638 49.6976L150.243 49.4678L150.241 49.462L150.238 49.4562L149.638 49.6976ZM144.916 37.9294L145.516 37.6879L145.121 36.7031L144.426 37.5053L144.916 37.9294ZM134.726 49.6976L135.213 50.1243L135.215 50.1218L134.726 49.6976ZM132.903 56.6592V57.3066L133.136 56.0551L132.903 56.6592ZM115.837 56.6592L115.711 56.024L115.837 57.3066V56.6592ZM118.82 54.6702L119.238 55.1642L119.248 55.1558L119.258 55.1467L118.82 54.6702ZM123.542 49.6976L123.054 49.2723L123.053 49.2742L123.542 49.6976ZM141.353 29.2275L141.841 29.6529L142.103 29.3525L141.953 28.9834L141.353 29.2275ZM130.335 3.61915L129.805 3.99016L129.815 4.00569L129.827 4.02059L130.335 3.61915ZM127.767 1.46442V0.816956L127.551 2.07497L127.767 1.46442ZM146.407 1.46442L146.611 2.07884L146.407 0.816956V1.46442ZM144.833 2.54177L144.322 2.14424L144.307 2.16301L144.294 2.18244L144.833 2.54177ZM145.081 7.4314L145.681 7.18732V7.18601L145.081 7.4314ZM149.969 19.4483L149.37 19.6924L149.767 20.6687L150.458 19.873L149.969 19.4483ZM160.408 7.4314L159.928 6.99631L159.924 7.00148L159.919 7.00668L160.408 7.4314ZM162.396 2.12741L161.89 2.53207L161.936 2.58775L161.991 2.63308L162.396 2.12741ZM161.402 1.46442V0.816956L161.175 2.07042L161.402 1.46442ZM178.716 1.46442L178.943 2.07042L178.716 0.816956V1.46442ZM178.054 1.71302L177.826 1.10702L177.806 1.11413L177.787 1.1232L178.054 1.71302ZM171.426 7.4314L170.943 7.00085L170.937 7.00731L171.426 7.4314ZM153.532 28.0673L153.043 27.6432L152.783 27.9417L152.931 28.3088L153.532 28.0673ZM161.627 49.932C162.411 51.9495 163.235 53.5779 164.106 54.7977C164.974 56.013 165.923 56.8709 166.974 57.2652L167.428 56.0531C166.712 55.7844 165.949 55.1506 165.16 54.0454C164.374 52.9447 163.596 51.4238 162.833 49.4633L161.627 49.932ZM167.201 56.0117H148.809V57.3066H167.201V56.0117ZM148.987 57.282C149.725 57.0709 150.301 56.6268 150.677 55.9638C151.042 55.3202 151.196 54.5135 151.196 53.5928H149.902C149.902 54.3853 149.767 54.9453 149.551 55.3241C149.347 55.6834 149.053 55.9159 148.631 56.0363L148.987 57.282ZM151.196 53.5928C151.196 52.483 150.861 51.0988 150.243 49.4678L149.033 49.9275C149.629 51.5015 149.902 52.7135 149.902 53.5928H151.196ZM150.238 49.4562L145.516 37.6879L144.315 38.1709L149.037 49.9392L150.238 49.4562ZM144.426 37.5053L134.237 49.2736L135.215 50.1218L145.405 38.3535L144.426 37.5053ZM134.239 49.271C133.254 50.3969 132.497 51.4309 131.984 52.3704C131.473 53.3047 131.179 54.1878 131.179 55.0017H132.474C132.474 54.4895 132.663 53.8259 133.119 52.9919C133.572 52.1632 134.265 51.2082 135.213 50.1243L134.239 49.271ZM131.179 55.0017C131.179 55.5093 131.29 55.9851 131.553 56.3905C131.819 56.7997 132.207 57.0845 132.671 57.2632L133.136 56.0551C132.882 55.9573 132.731 55.8285 132.638 55.6847C132.543 55.5378 132.474 55.3228 132.474 55.0017H131.179ZM132.903 56.0117H115.837V57.3066H132.903V56.0117ZM115.964 57.2943C116.373 57.2121 116.85 56.955 117.356 56.6177C117.882 56.2674 118.51 55.7799 119.238 55.1642L118.402 54.1762C117.693 54.7757 117.107 55.2276 116.638 55.5403C116.15 55.866 115.854 55.9955 115.711 56.024L115.964 57.2943ZM119.258 55.1467C120.663 53.8537 122.255 52.1768 124.031 50.1211L123.053 49.2742C121.295 51.3072 119.738 52.9453 118.382 54.1936L119.258 55.1467ZM124.03 50.123L141.841 29.6529L140.865 28.8022L123.054 49.2723L124.03 50.123ZM141.953 28.9834L133.088 7.18732L131.89 7.6755L140.754 29.4716L141.953 28.9834ZM133.088 7.18732C132.463 5.65024 131.716 4.32424 130.843 3.21773L129.827 4.02059C130.611 5.0138 131.301 6.22907 131.89 7.6755L133.088 7.18732ZM130.865 3.24815C130.042 2.07042 129.087 1.24362 127.982 0.853846L127.551 2.07497C128.325 2.3482 129.082 2.95746 129.805 3.99016L130.865 3.24815ZM127.767 2.11188H146.407V0.816956H127.767V2.11188ZM146.202 0.849973C145.432 1.10701 144.795 1.53498 144.322 2.14424L145.344 2.93932C145.643 2.55408 146.056 2.26401 146.611 2.07884L146.202 0.849973ZM144.294 2.18244C143.874 2.81371 143.689 3.58354 143.689 4.4479H144.983C144.983 3.76483 145.129 3.26435 145.371 2.90113L144.294 2.18244ZM143.689 4.4479C143.689 5.34463 143.973 6.42978 144.482 7.67679L145.681 7.18601C145.196 6.00181 144.983 5.0986 144.983 4.4479H143.689ZM144.482 7.6755L149.37 19.6924L150.569 19.2042L145.681 7.18732L144.482 7.6755ZM150.458 19.873L160.896 7.85614L159.919 7.00668L149.481 19.0236L150.458 19.873ZM160.887 7.86651C161.708 6.96071 162.342 6.11901 162.775 5.34335C163.205 4.57223 163.457 3.8257 163.457 3.12191H162.163C162.163 3.52269 162.015 4.04714 161.645 4.71273C161.276 5.37378 160.709 6.13454 159.928 6.99631L160.887 7.86651ZM163.457 3.12191C163.457 2.53726 163.268 1.99597 162.8 1.62174L161.991 2.63308C162.077 2.70106 162.163 2.82279 162.163 3.12191H163.457ZM162.901 1.72274C162.587 1.32974 162.145 1.05133 161.629 0.85839L161.175 2.07042C161.543 2.20898 161.763 2.37215 161.89 2.53207L162.901 1.72274ZM161.402 2.11188H178.716V0.816956H161.402V2.11188ZM178.489 0.85839L177.826 1.10702L178.281 2.31905L178.943 2.07042L178.489 0.85839ZM177.787 1.1232C175.941 1.95713 173.655 3.9552 170.943 7.00085L171.909 7.86197C174.61 4.82991 176.742 3.01637 178.32 2.30287L177.787 1.1232ZM170.937 7.00731L153.043 27.6432L154.02 28.4914L171.915 7.85548L170.937 7.00731ZM152.931 28.3088L161.63 49.9392L162.831 49.4562L154.132 27.8258L152.931 28.3088Z" fill="white"/>
</svg>
