<svg width="93" height="37" viewBox="0 0 93 37" fill="none" xmlns="http://www.w3.org/2000/svg">
<mask id="mask0_927_517" style="mask-type:luminance" maskUnits="userSpaceOnUse" x="0" y="0" width="93" height="37">
<path d="M92.6862 0.078125H0.78064V36.3359H92.6862V0.078125Z" fill="white"/>
</mask>
<g mask="url(#mask0_927_517)">
<path d="M84.9591 27.2788C83.4957 26.9029 82.2194 26.5954 82.2194 25.3823C82.2194 24.4255 82.9339 23.8445 84.0911 23.8445C85.249 23.8445 86.0483 24.4767 86.3208 25.5702L89.1971 24.1863C88.4482 22.2556 86.5765 21.1108 84.1766 21.1108C81.0958 21.1108 78.9347 23.0073 78.9347 25.7069C78.9347 29.0215 81.334 29.6366 83.4445 30.1834C84.9254 30.5592 86.2017 30.901 86.2017 32.1482C86.2017 33.1734 85.3849 33.84 84.1086 33.84C82.8316 33.84 81.7935 33.1392 81.5042 32.114L78.6279 33.498C79.4279 35.3945 81.4705 36.5561 83.972 36.5561C87.3253 36.5561 89.4864 34.6772 89.4864 31.7723C89.5207 28.4235 86.9849 27.7913 84.9591 27.2788Z" fill="#C89B3C"/>
<path d="M85.6399 14.4473H87.3078V12.1749H89.01L89.4352 10.6884H87.3078V9.25323H89.7245V7.7326H85.6399V14.4473Z" fill="#C89B3C"/>
<path d="M81.4362 14.6524C83.3597 14.6524 84.9422 13.0805 84.9422 11.1669C84.9422 9.23621 83.3765 7.6814 81.4362 7.6814C79.5133 7.6814 77.9302 9.25324 77.9302 11.1669C77.947 13.0805 79.5133 14.6524 81.4362 14.6524ZM81.4362 9.28743C82.4743 9.28743 83.3086 10.1247 83.3086 11.1669C83.3086 12.192 82.4743 13.0463 81.4362 13.0463C80.398 13.0463 79.5644 12.2091 79.5644 11.1669C79.5644 10.1247 80.4149 9.28743 81.4362 9.28743Z" fill="#C89B3C"/>
<path d="M50.1714 21.1962L50.8859 22.6826V36.1294H54.001V26.3048L60.9955 36.1294H64.2465V21.1962H61.1321V31.1572L54.1881 21.1962H50.1714Z" fill="#C89B3C"/>
<path d="M73.7096 21.8113C72.7905 21.4353 71.4631 21.1962 70.7647 21.1962H65.6931V36.1294H70.7479C71.7861 36.1294 72.7731 35.941 73.6921 35.5655C74.6112 35.1893 75.4286 34.6597 76.1263 33.9934C76.824 33.3271 77.3684 32.5411 77.7599 31.6356C78.1515 30.73 78.356 29.7561 78.356 28.6968C78.356 27.6546 78.1515 26.6636 77.7599 25.758C77.3684 24.8525 76.824 24.0666 76.1263 23.4003C75.4455 22.7339 74.6455 22.2042 73.7096 21.8113ZM74.7303 30.4396C74.5096 30.9863 74.186 31.4476 73.7944 31.8406C73.4028 32.2336 72.9433 32.5582 72.399 32.7803C71.854 33.0195 71.2754 33.122 70.6631 33.122H68.893V24.2203H70.68C71.2929 24.2203 71.8715 24.34 72.4158 24.5791C72.9608 24.8183 73.4203 25.1259 73.8112 25.5189C74.2028 25.9118 74.5096 26.3902 74.7477 26.937C74.9691 27.4837 75.0882 28.0646 75.0882 28.6797C75.0882 29.3119 74.9691 29.8928 74.7303 30.4396Z" fill="#C89B3C"/>
<path d="M14.7198 21.1962V36.1294H23.57V33.2417L17.9534 33.2075V29.9441H22.2936L23.0761 27.1249H17.9534V24.1007H23.57V21.1962H14.7198Z" fill="#C89B3C"/>
<path d="M48.9463 27.1249H43.8061V24.1007H49.4395V21.1962H40.5894V36.1294H49.4395V33.2417L43.8061 33.2075V29.9441H48.1631L48.9463 27.1249Z" fill="#C89B3C"/>
<path d="M56.2132 17.3347C56.7239 17.8815 57.3536 18.2915 58.0856 18.582C58.817 18.8724 59.6681 19.0262 60.604 19.0262C61.5405 19.0262 62.3916 18.8895 63.123 18.5991C63.8718 18.3086 64.5015 17.8986 65.0122 17.3689C65.5229 16.8393 65.9312 16.19 66.2037 15.4211C66.493 14.6523 66.629 13.7979 66.629 12.8753L66.6801 3.59778H63.4297L63.3786 12.6874C63.3786 13.6955 63.1404 14.4814 62.6634 15.0623C62.1871 15.6432 61.5062 15.9337 60.604 15.9166C59.7024 15.9166 59.0215 15.6262 58.562 15.0281C58.1025 14.4472 57.8643 13.6442 57.8643 12.6361L57.9154 3.5636H54.6644L54.6133 12.7899C54.6133 13.7296 54.7498 14.5839 55.0217 15.3528C55.311 16.1387 55.7026 16.788 56.2132 17.3347Z" fill="#C89B3C"/>
<path d="M40.5893 16.6684C41.287 17.369 42.1038 17.9328 43.0403 18.3429C43.993 18.7529 44.9975 18.958 46.1036 18.958C47.1761 18.958 48.1631 18.7871 49.0653 18.4112C49.9669 18.0353 50.75 17.5227 51.4134 16.8735C52.0775 16.2242 52.5881 15.4382 52.9622 14.5327C53.2347 13.8835 53.4049 13.2 53.4904 12.4824C53.524 12.209 53.5583 10.9618 53.524 10.3979H46.1379L44.8273 13.0975H50.086C49.8821 13.9518 49.4226 14.6523 48.7074 15.182C47.9929 15.7117 47.1418 15.9679 46.1379 15.9679C45.4907 15.9679 44.8953 15.8312 44.3509 15.592C43.7892 15.3357 43.3121 14.994 42.9037 14.5669C42.4953 14.1397 42.1724 13.6442 41.9336 13.0633C41.6954 12.4824 41.5938 11.8674 41.5938 11.2181C41.5938 10.5688 41.7129 9.95372 41.951 9.37282C42.1892 8.79192 42.5128 8.29642 42.9381 7.86929C43.3465 7.44209 43.8403 7.11752 44.3846 6.87828C44.9296 6.63911 45.525 6.51946 46.1716 6.51946C47.0395 6.51946 47.8058 6.72451 48.4692 7.10043C49.1333 7.49337 49.6607 8.04015 50.018 8.77482L52.9286 7.39087C52.3157 6.17779 51.4309 5.23807 50.2394 4.55461C49.0478 3.87121 47.7035 3.51239 46.189 3.51239C45.1166 3.51239 44.1121 3.70035 43.1594 4.11038C42.206 4.50339 41.3724 5.0672 40.6572 5.7506C39.9427 6.45115 39.3809 7.27129 38.9725 8.19392C38.5467 9.13358 38.3428 10.1246 38.3428 11.1839C38.3428 12.2432 38.5298 13.2513 38.9382 14.191C39.3466 15.1478 39.8916 15.9679 40.5893 16.6684Z" fill="#C89B3C"/>
<path d="M3.74231 3.59772L4.47367 5.13544V17.0443L3.74231 18.582H12.8131L13.6306 15.6603H7.69037V3.59772H3.74231Z" fill="#C89B3C"/>
<path d="M3.74231 21.145L4.47367 22.6998V34.5917L3.74231 36.1462H12.8131L13.6306 33.2075H7.69037V21.145H3.74231Z" fill="#C89B3C"/>
<path d="M14.7198 3.63202V18.5821H23.57V15.6946L17.9534 15.6604V12.3799H22.2936L23.0761 9.57785H17.9534V6.55369H23.57V3.63202H14.7198Z" fill="#C89B3C"/>
<path d="M68.093 3.63202V18.5821H76.9431V15.6946L71.3097 15.6604V12.3799H75.6668L76.4493 9.57785H71.3097V6.55369H76.9431V3.63202H68.093Z" fill="#C89B3C"/>
<path d="M27.8928 18.582L29.0164 15.6603H34.9728L36.13 18.582H39.4833L33.5094 3.59772H28.931L29.8843 5.54554L24.6082 18.582H27.8928ZM32.0454 7.78374L33.901 12.8069H30.1057L32.0454 7.78374Z" fill="#C89B3C"/>
<path d="M30.2752 33.2245C30.2415 33.2074 30.1904 33.1903 30.1561 33.1732C29.5949 32.917 29.1179 32.5752 28.7095 32.1481C28.3011 31.7209 27.9775 31.2255 27.7394 30.6445C27.5012 30.0636 27.3989 29.4485 27.3989 28.7993C27.3989 28.15 27.518 27.535 27.7568 26.954C27.995 26.3731 28.318 25.8776 28.7438 25.4505C29.1522 25.0233 29.6461 24.6987 30.1904 24.4595C30.7347 24.2203 31.3308 24.1007 31.9774 24.1007C32.8453 24.1007 33.6116 24.3057 34.275 24.6816C34.9391 25.0746 35.4665 25.6213 35.8238 26.356L38.7344 24.9721C38.1214 23.759 37.2367 22.8192 36.0451 22.1358C34.8536 21.4524 33.5093 21.0936 31.9942 21.0936C30.9224 21.0936 29.9179 21.2815 28.9652 21.6916C28.0118 22.0846 27.1782 22.6484 26.463 23.3318C25.7485 24.0323 25.1867 24.8525 24.7783 25.7751C24.3524 26.7148 24.1486 27.7058 24.1486 28.7651C24.1486 29.8244 24.3356 30.8325 24.744 31.7722C25.1524 32.7119 25.6974 33.5321 26.3951 34.2324C27.0585 34.8986 27.8416 35.4457 28.727 35.8387L30.2752 33.2245Z" fill="#C89B3C"/>
<path d="M39.3299 27.9963H31.9263L30.6157 30.6958H35.875C35.6705 31.5501 35.2109 32.2506 34.4964 32.7803C33.7819 33.3099 32.9308 33.5663 31.9263 33.5663C31.4842 33.5663 31.0583 33.4979 30.65 33.3783L29.9354 36.3172C30.5652 36.4706 31.2117 36.5561 31.8926 36.5561C32.9644 36.5561 33.9514 36.3852 34.8537 36.0096C35.7559 35.6335 36.539 35.1213 37.2024 34.4719C37.8665 33.8225 38.3771 33.0366 38.7512 32.131C39.0237 31.4818 39.1939 30.7984 39.2787 30.0807C39.313 29.8074 39.3642 28.5601 39.3299 27.9963Z" fill="#C89B3C"/>
</g>
</svg>
